<svg width="69" height="69" viewBox="0 0 69 69" fill="none" xmlns="http://www.w3.org/2000/svg">
<path d="M50.1797 22.36C48.1416 19.621 45.4326 17.4534 42.313 16.0662C39.1935 14.6789 35.7691 14.1188 32.3701 14.44C27.8339 14.8776 23.5842 16.856 20.3291 20.0456C17.074 23.2352 15.0098 27.4436 14.48 31.97C14.1616 34.7544 14.435 37.5748 15.2827 40.2461C16.1304 42.9174 17.5333 45.3794 19.399 47.4708C21.2646 49.5621 23.5513 51.2356 26.1089 52.3815C28.6666 53.5274 31.4372 54.1198 34.2398 54.12C39.2386 54.1184 44.0539 52.2346 47.7266 48.8436C51.3993 45.4525 53.6605 40.8028 54.0601 35.82C54.0737 35.6182 54.0457 35.4158 53.9781 35.2252C53.9104 35.0346 53.8048 34.8599 53.667 34.7119C53.5293 34.5638 53.3625 34.4456 53.1773 34.3644C52.992 34.2832 52.7921 34.2409 52.5899 34.24H34.44M66.42 34.21C66.42 51.9991 51.9991 66.42 34.21 66.42C16.4209 66.42 2 51.9991 2 34.21C2 16.4209 16.4209 2 34.21 2C51.9991 2 66.42 16.4209 66.42 34.21Z" stroke="#093030" stroke-width="4" stroke-linecap="round" stroke-linejoin="round"/>
</svg>
